<mxfile host="app.diagrams.net" agent="Mozilla/5.0 (Windows NT 10.0; Win64; x64) AppleWebKit/537.36 (KHTML, like Gecko) Chrome/129.0.0.0 Safari/537.36" version="24.8.2" pages="2">
  <diagram name="第 1 页" id="3z1J253OduiPdmbsbZfI">
    <mxGraphModel dx="2796" dy="878" grid="1" gridSize="10" guides="1" tooltips="1" connect="1" arrows="1" fold="1" page="1" pageScale="1" pageWidth="827" pageHeight="1169" math="0" shadow="0">
      <root>
        <mxCell id="0" />
        <mxCell id="1" parent="0" />
        <mxCell id="pJ0Gjrf8YPt-FvfLKCxl-1" value="state(共享资源)" style="rounded=1;whiteSpace=wrap;html=1;fillColor=#99CCFF;" vertex="1" parent="1">
          <mxGeometry x="370" y="170" width="120" height="60" as="geometry" />
        </mxCell>
        <mxCell id="pJ0Gjrf8YPt-FvfLKCxl-93" style="edgeStyle=orthogonalEdgeStyle;rounded=0;orthogonalLoop=1;jettySize=auto;html=1;curved=1;exitX=0.5;exitY=0.2;exitDx=0;exitDy=0;exitPerimeter=0;" edge="1" parent="1" source="pJ0Gjrf8YPt-FvfLKCxl-47" target="pJ0Gjrf8YPt-FvfLKCxl-1">
          <mxGeometry relative="1" as="geometry">
            <Array as="points">
              <mxPoint x="130" y="330" />
              <mxPoint x="430" y="330" />
            </Array>
          </mxGeometry>
        </mxCell>
        <mxCell id="pJ0Gjrf8YPt-FvfLKCxl-2" value="" style="rounded=1;whiteSpace=wrap;html=1;fillColor=#D4E1F5;" vertex="1" parent="1">
          <mxGeometry x="70" y="470" width="120" height="130" as="geometry" />
        </mxCell>
        <mxCell id="pJ0Gjrf8YPt-FvfLKCxl-4" value="waitStates" style="rounded=1;whiteSpace=wrap;html=1;fillColor=#D4E1F5;" vertex="1" parent="1">
          <mxGeometry x="95" y="490" width="70" height="20" as="geometry" />
        </mxCell>
        <mxCell id="pJ0Gjrf8YPt-FvfLKCxl-6" value="占用线程" style="rounded=1;whiteSpace=wrap;html=1;fillColor=#E6E6E6;" vertex="1" parent="1">
          <mxGeometry x="95" y="530" width="70" height="20" as="geometry" />
        </mxCell>
        <mxCell id="pJ0Gjrf8YPt-FvfLKCxl-7" value="prev" style="rounded=1;whiteSpace=wrap;html=1;fillColor=#D5E8D4;" vertex="1" parent="1">
          <mxGeometry x="80" y="570" width="40" height="20" as="geometry" />
        </mxCell>
        <mxCell id="pJ0Gjrf8YPt-FvfLKCxl-8" value="next" style="rounded=1;whiteSpace=wrap;html=1;fillColor=#F8CECC;" vertex="1" parent="1">
          <mxGeometry x="140" y="570" width="40" height="20" as="geometry" />
        </mxCell>
        <mxCell id="pJ0Gjrf8YPt-FvfLKCxl-40" value="" style="rounded=1;whiteSpace=wrap;html=1;fillColor=#D4E1F5;" vertex="1" parent="1">
          <mxGeometry x="-80" y="470" width="120" height="130" as="geometry" />
        </mxCell>
        <mxCell id="pJ0Gjrf8YPt-FvfLKCxl-43" value="prev" style="rounded=1;whiteSpace=wrap;html=1;fillColor=#D5E8D4;" vertex="1" parent="1">
          <mxGeometry x="-40" y="510" width="40" height="20" as="geometry" />
        </mxCell>
        <mxCell id="pJ0Gjrf8YPt-FvfLKCxl-44" value="next" style="rounded=1;whiteSpace=wrap;html=1;fillColor=#F8CECC;" vertex="1" parent="1">
          <mxGeometry x="-40" y="570" width="40" height="20" as="geometry" />
        </mxCell>
        <mxCell id="pJ0Gjrf8YPt-FvfLKCxl-46" value="虚拟节点" style="text;html=1;align=center;verticalAlign=middle;whiteSpace=wrap;rounded=0;" vertex="1" parent="1">
          <mxGeometry x="-50" y="470" width="60" height="30" as="geometry" />
        </mxCell>
        <mxCell id="pJ0Gjrf8YPt-FvfLKCxl-47" value="Node" style="text;html=1;align=center;verticalAlign=middle;whiteSpace=wrap;rounded=0;" vertex="1" parent="1">
          <mxGeometry x="100" y="464" width="60" height="30" as="geometry" />
        </mxCell>
        <mxCell id="pJ0Gjrf8YPt-FvfLKCxl-48" value="" style="rounded=1;whiteSpace=wrap;html=1;fillColor=#D4E1F5;" vertex="1" parent="1">
          <mxGeometry x="220" y="470" width="120" height="130" as="geometry" />
        </mxCell>
        <mxCell id="pJ0Gjrf8YPt-FvfLKCxl-49" value="waitStates" style="rounded=1;whiteSpace=wrap;html=1;fillColor=#D4E1F5;" vertex="1" parent="1">
          <mxGeometry x="245" y="490" width="70" height="20" as="geometry" />
        </mxCell>
        <mxCell id="pJ0Gjrf8YPt-FvfLKCxl-50" value="等待线程" style="rounded=1;whiteSpace=wrap;html=1;fillColor=#E6E6E6;" vertex="1" parent="1">
          <mxGeometry x="245" y="530" width="70" height="20" as="geometry" />
        </mxCell>
        <mxCell id="pJ0Gjrf8YPt-FvfLKCxl-51" value="prev" style="rounded=1;whiteSpace=wrap;html=1;fillColor=#D5E8D4;" vertex="1" parent="1">
          <mxGeometry x="230" y="570" width="40" height="20" as="geometry" />
        </mxCell>
        <mxCell id="pJ0Gjrf8YPt-FvfLKCxl-52" value="next" style="rounded=1;whiteSpace=wrap;html=1;fillColor=#F8CECC;" vertex="1" parent="1">
          <mxGeometry x="290" y="570" width="40" height="20" as="geometry" />
        </mxCell>
        <mxCell id="pJ0Gjrf8YPt-FvfLKCxl-53" value="Node" style="text;html=1;align=center;verticalAlign=middle;whiteSpace=wrap;rounded=0;" vertex="1" parent="1">
          <mxGeometry x="250" y="464" width="60" height="30" as="geometry" />
        </mxCell>
        <mxCell id="pJ0Gjrf8YPt-FvfLKCxl-96" style="edgeStyle=orthogonalEdgeStyle;rounded=0;orthogonalLoop=1;jettySize=auto;html=1;entryX=0.5;entryY=1;entryDx=0;entryDy=0;" edge="1" parent="1" source="pJ0Gjrf8YPt-FvfLKCxl-54" target="pJ0Gjrf8YPt-FvfLKCxl-1">
          <mxGeometry relative="1" as="geometry" />
        </mxCell>
        <mxCell id="pJ0Gjrf8YPt-FvfLKCxl-54" value="" style="rounded=1;whiteSpace=wrap;html=1;fillColor=#D4E1F5;" vertex="1" parent="1">
          <mxGeometry x="370" y="470" width="120" height="130" as="geometry" />
        </mxCell>
        <mxCell id="pJ0Gjrf8YPt-FvfLKCxl-55" value="waitStates" style="rounded=1;whiteSpace=wrap;html=1;fillColor=#D4E1F5;" vertex="1" parent="1">
          <mxGeometry x="395" y="490" width="70" height="20" as="geometry" />
        </mxCell>
        <mxCell id="pJ0Gjrf8YPt-FvfLKCxl-56" value="等待线程" style="rounded=1;whiteSpace=wrap;html=1;fillColor=#E6E6E6;" vertex="1" parent="1">
          <mxGeometry x="395" y="530" width="70" height="20" as="geometry" />
        </mxCell>
        <mxCell id="pJ0Gjrf8YPt-FvfLKCxl-57" value="prev" style="rounded=1;whiteSpace=wrap;html=1;fillColor=#D5E8D4;" vertex="1" parent="1">
          <mxGeometry x="380" y="570" width="40" height="20" as="geometry" />
        </mxCell>
        <mxCell id="pJ0Gjrf8YPt-FvfLKCxl-58" value="next" style="rounded=1;whiteSpace=wrap;html=1;fillColor=#F8CECC;" vertex="1" parent="1">
          <mxGeometry x="440" y="570" width="40" height="20" as="geometry" />
        </mxCell>
        <mxCell id="pJ0Gjrf8YPt-FvfLKCxl-59" value="Node" style="text;html=1;align=center;verticalAlign=middle;whiteSpace=wrap;rounded=0;" vertex="1" parent="1">
          <mxGeometry x="400" y="464" width="60" height="30" as="geometry" />
        </mxCell>
        <mxCell id="pJ0Gjrf8YPt-FvfLKCxl-97" style="edgeStyle=orthogonalEdgeStyle;rounded=0;orthogonalLoop=1;jettySize=auto;html=1;entryX=0.5;entryY=1;entryDx=0;entryDy=0;curved=1;exitX=0.5;exitY=0.2;exitDx=0;exitDy=0;exitPerimeter=0;" edge="1" parent="1" source="pJ0Gjrf8YPt-FvfLKCxl-65" target="pJ0Gjrf8YPt-FvfLKCxl-1">
          <mxGeometry relative="1" as="geometry">
            <Array as="points">
              <mxPoint x="580" y="360" />
              <mxPoint x="430" y="360" />
            </Array>
          </mxGeometry>
        </mxCell>
        <mxCell id="pJ0Gjrf8YPt-FvfLKCxl-60" value="" style="rounded=1;whiteSpace=wrap;html=1;fillColor=#D4E1F5;" vertex="1" parent="1">
          <mxGeometry x="520" y="470" width="120" height="130" as="geometry" />
        </mxCell>
        <mxCell id="pJ0Gjrf8YPt-FvfLKCxl-61" value="waitStates" style="rounded=1;whiteSpace=wrap;html=1;fillColor=#D4E1F5;" vertex="1" parent="1">
          <mxGeometry x="545" y="490" width="70" height="20" as="geometry" />
        </mxCell>
        <mxCell id="pJ0Gjrf8YPt-FvfLKCxl-62" value="等待线程" style="rounded=1;whiteSpace=wrap;html=1;fillColor=#E6E6E6;" vertex="1" parent="1">
          <mxGeometry x="545" y="530" width="70" height="20" as="geometry" />
        </mxCell>
        <mxCell id="pJ0Gjrf8YPt-FvfLKCxl-63" value="prev" style="rounded=1;whiteSpace=wrap;html=1;fillColor=#D5E8D4;" vertex="1" parent="1">
          <mxGeometry x="530" y="570" width="40" height="20" as="geometry" />
        </mxCell>
        <mxCell id="pJ0Gjrf8YPt-FvfLKCxl-64" value="next" style="rounded=1;whiteSpace=wrap;html=1;fillColor=#F8CECC;" vertex="1" parent="1">
          <mxGeometry x="590" y="570" width="40" height="20" as="geometry" />
        </mxCell>
        <mxCell id="pJ0Gjrf8YPt-FvfLKCxl-65" value="Node" style="text;html=1;align=center;verticalAlign=middle;whiteSpace=wrap;rounded=0;" vertex="1" parent="1">
          <mxGeometry x="550" y="464" width="60" height="30" as="geometry" />
        </mxCell>
        <mxCell id="pJ0Gjrf8YPt-FvfLKCxl-98" style="edgeStyle=orthogonalEdgeStyle;rounded=0;orthogonalLoop=1;jettySize=auto;html=1;entryX=0.5;entryY=1;entryDx=0;entryDy=0;exitX=0.5;exitY=0.2;exitDx=0;exitDy=0;exitPerimeter=0;curved=1;" edge="1" parent="1" source="pJ0Gjrf8YPt-FvfLKCxl-71" target="pJ0Gjrf8YPt-FvfLKCxl-1">
          <mxGeometry relative="1" as="geometry">
            <Array as="points">
              <mxPoint x="730" y="330" />
              <mxPoint x="430" y="330" />
            </Array>
          </mxGeometry>
        </mxCell>
        <mxCell id="pJ0Gjrf8YPt-FvfLKCxl-66" value="" style="rounded=1;whiteSpace=wrap;html=1;fillColor=#D4E1F5;" vertex="1" parent="1">
          <mxGeometry x="670" y="470" width="120" height="130" as="geometry" />
        </mxCell>
        <mxCell id="pJ0Gjrf8YPt-FvfLKCxl-67" value="waitStates" style="rounded=1;whiteSpace=wrap;html=1;fillColor=#D4E1F5;" vertex="1" parent="1">
          <mxGeometry x="695" y="490" width="70" height="20" as="geometry" />
        </mxCell>
        <mxCell id="pJ0Gjrf8YPt-FvfLKCxl-68" value="等待线程" style="rounded=1;whiteSpace=wrap;html=1;fillColor=#E6E6E6;" vertex="1" parent="1">
          <mxGeometry x="695" y="530" width="70" height="20" as="geometry" />
        </mxCell>
        <mxCell id="pJ0Gjrf8YPt-FvfLKCxl-69" value="prev" style="rounded=1;whiteSpace=wrap;html=1;fillColor=#D5E8D4;" vertex="1" parent="1">
          <mxGeometry x="680" y="570" width="40" height="20" as="geometry" />
        </mxCell>
        <mxCell id="pJ0Gjrf8YPt-FvfLKCxl-70" value="next" style="rounded=1;whiteSpace=wrap;html=1;fillColor=#F8CECC;" vertex="1" parent="1">
          <mxGeometry x="740" y="570" width="40" height="20" as="geometry" />
        </mxCell>
        <mxCell id="pJ0Gjrf8YPt-FvfLKCxl-71" value="Node" style="text;html=1;align=center;verticalAlign=middle;whiteSpace=wrap;rounded=0;" vertex="1" parent="1">
          <mxGeometry x="700" y="464" width="60" height="30" as="geometry" />
        </mxCell>
        <mxCell id="pJ0Gjrf8YPt-FvfLKCxl-73" style="edgeStyle=orthogonalEdgeStyle;rounded=0;orthogonalLoop=1;jettySize=auto;html=1;exitX=0;exitY=0.75;exitDx=0;exitDy=0;entryX=1;entryY=0.885;entryDx=0;entryDy=0;entryPerimeter=0;" edge="1" parent="1" source="pJ0Gjrf8YPt-FvfLKCxl-51" target="pJ0Gjrf8YPt-FvfLKCxl-2">
          <mxGeometry relative="1" as="geometry" />
        </mxCell>
        <mxCell id="pJ0Gjrf8YPt-FvfLKCxl-75" style="edgeStyle=orthogonalEdgeStyle;rounded=0;orthogonalLoop=1;jettySize=auto;html=1;exitX=1;exitY=0.25;exitDx=0;exitDy=0;entryX=0;entryY=0.808;entryDx=0;entryDy=0;entryPerimeter=0;" edge="1" parent="1" source="pJ0Gjrf8YPt-FvfLKCxl-8" target="pJ0Gjrf8YPt-FvfLKCxl-48">
          <mxGeometry relative="1" as="geometry" />
        </mxCell>
        <mxCell id="pJ0Gjrf8YPt-FvfLKCxl-77" style="edgeStyle=orthogonalEdgeStyle;rounded=0;orthogonalLoop=1;jettySize=auto;html=1;exitX=1;exitY=0.25;exitDx=0;exitDy=0;entryX=0;entryY=0.808;entryDx=0;entryDy=0;entryPerimeter=0;" edge="1" parent="1" source="pJ0Gjrf8YPt-FvfLKCxl-52" target="pJ0Gjrf8YPt-FvfLKCxl-54">
          <mxGeometry relative="1" as="geometry" />
        </mxCell>
        <mxCell id="pJ0Gjrf8YPt-FvfLKCxl-78" style="edgeStyle=orthogonalEdgeStyle;rounded=0;orthogonalLoop=1;jettySize=auto;html=1;exitX=0;exitY=0.75;exitDx=0;exitDy=0;entryX=1.003;entryY=0.877;entryDx=0;entryDy=0;entryPerimeter=0;" edge="1" parent="1" source="pJ0Gjrf8YPt-FvfLKCxl-57" target="pJ0Gjrf8YPt-FvfLKCxl-48">
          <mxGeometry relative="1" as="geometry" />
        </mxCell>
        <mxCell id="pJ0Gjrf8YPt-FvfLKCxl-79" style="edgeStyle=orthogonalEdgeStyle;rounded=0;orthogonalLoop=1;jettySize=auto;html=1;exitX=1;exitY=0.25;exitDx=0;exitDy=0;entryX=-0.002;entryY=0.808;entryDx=0;entryDy=0;entryPerimeter=0;" edge="1" parent="1" source="pJ0Gjrf8YPt-FvfLKCxl-58" target="pJ0Gjrf8YPt-FvfLKCxl-60">
          <mxGeometry relative="1" as="geometry" />
        </mxCell>
        <mxCell id="pJ0Gjrf8YPt-FvfLKCxl-81" style="edgeStyle=orthogonalEdgeStyle;rounded=0;orthogonalLoop=1;jettySize=auto;html=1;exitX=0;exitY=0.75;exitDx=0;exitDy=0;entryX=1.005;entryY=0.887;entryDx=0;entryDy=0;entryPerimeter=0;" edge="1" parent="1" source="pJ0Gjrf8YPt-FvfLKCxl-63" target="pJ0Gjrf8YPt-FvfLKCxl-54">
          <mxGeometry relative="1" as="geometry" />
        </mxCell>
        <mxCell id="pJ0Gjrf8YPt-FvfLKCxl-82" style="edgeStyle=orthogonalEdgeStyle;rounded=0;orthogonalLoop=1;jettySize=auto;html=1;exitX=1;exitY=0.25;exitDx=0;exitDy=0;entryX=0;entryY=0.808;entryDx=0;entryDy=0;entryPerimeter=0;" edge="1" parent="1" source="pJ0Gjrf8YPt-FvfLKCxl-64" target="pJ0Gjrf8YPt-FvfLKCxl-66">
          <mxGeometry relative="1" as="geometry" />
        </mxCell>
        <mxCell id="pJ0Gjrf8YPt-FvfLKCxl-83" style="edgeStyle=orthogonalEdgeStyle;rounded=0;orthogonalLoop=1;jettySize=auto;html=1;exitX=0;exitY=0.75;exitDx=0;exitDy=0;entryX=1.006;entryY=0.892;entryDx=0;entryDy=0;entryPerimeter=0;" edge="1" parent="1" source="pJ0Gjrf8YPt-FvfLKCxl-69" target="pJ0Gjrf8YPt-FvfLKCxl-60">
          <mxGeometry relative="1" as="geometry" />
        </mxCell>
        <mxCell id="pJ0Gjrf8YPt-FvfLKCxl-86" style="edgeStyle=orthogonalEdgeStyle;rounded=0;orthogonalLoop=1;jettySize=auto;html=1;exitX=1;exitY=0.25;exitDx=0;exitDy=0;entryX=0;entryY=0.808;entryDx=0;entryDy=0;entryPerimeter=0;" edge="1" parent="1" source="pJ0Gjrf8YPt-FvfLKCxl-44" target="pJ0Gjrf8YPt-FvfLKCxl-2">
          <mxGeometry relative="1" as="geometry" />
        </mxCell>
        <mxCell id="pJ0Gjrf8YPt-FvfLKCxl-87" style="edgeStyle=orthogonalEdgeStyle;rounded=0;orthogonalLoop=1;jettySize=auto;html=1;exitX=0;exitY=0.75;exitDx=0;exitDy=0;entryX=1.001;entryY=0.892;entryDx=0;entryDy=0;entryPerimeter=0;" edge="1" parent="1" source="pJ0Gjrf8YPt-FvfLKCxl-7" target="pJ0Gjrf8YPt-FvfLKCxl-40">
          <mxGeometry relative="1" as="geometry" />
        </mxCell>
        <mxCell id="pJ0Gjrf8YPt-FvfLKCxl-95" style="edgeStyle=orthogonalEdgeStyle;rounded=0;orthogonalLoop=1;jettySize=auto;html=1;entryX=0.5;entryY=1;entryDx=0;entryDy=0;curved=1;exitX=0.5;exitY=0.2;exitDx=0;exitDy=0;exitPerimeter=0;" edge="1" parent="1" source="pJ0Gjrf8YPt-FvfLKCxl-53" target="pJ0Gjrf8YPt-FvfLKCxl-1">
          <mxGeometry relative="1" as="geometry">
            <Array as="points">
              <mxPoint x="280" y="360" />
              <mxPoint x="430" y="360" />
            </Array>
          </mxGeometry>
        </mxCell>
        <mxCell id="pJ0Gjrf8YPt-FvfLKCxl-103" style="edgeStyle=orthogonalEdgeStyle;rounded=0;orthogonalLoop=1;jettySize=auto;html=1;exitX=0.5;exitY=0;exitDx=0;exitDy=0;entryX=0.5;entryY=1;entryDx=0;entryDy=0;" edge="1" parent="1" source="pJ0Gjrf8YPt-FvfLKCxl-100" target="pJ0Gjrf8YPt-FvfLKCxl-40">
          <mxGeometry relative="1" as="geometry" />
        </mxCell>
        <mxCell id="pJ0Gjrf8YPt-FvfLKCxl-100" value="head" style="rounded=1;whiteSpace=wrap;html=1;fillColor=#D5E8D4;" vertex="1" parent="1">
          <mxGeometry x="-40" y="680" width="40" height="20" as="geometry" />
        </mxCell>
        <mxCell id="pJ0Gjrf8YPt-FvfLKCxl-104" style="edgeStyle=orthogonalEdgeStyle;rounded=0;orthogonalLoop=1;jettySize=auto;html=1;exitX=0.5;exitY=0;exitDx=0;exitDy=0;entryX=0.5;entryY=1;entryDx=0;entryDy=0;" edge="1" parent="1" source="pJ0Gjrf8YPt-FvfLKCxl-102" target="pJ0Gjrf8YPt-FvfLKCxl-66">
          <mxGeometry relative="1" as="geometry" />
        </mxCell>
        <mxCell id="pJ0Gjrf8YPt-FvfLKCxl-102" value="next" style="rounded=1;whiteSpace=wrap;html=1;fillColor=#F8CECC;" vertex="1" parent="1">
          <mxGeometry x="710" y="680" width="40" height="20" as="geometry" />
        </mxCell>
        <mxCell id="pJ0Gjrf8YPt-FvfLKCxl-106" value="CLH队列&lt;div&gt;&lt;br&gt;&lt;/div&gt;&lt;div&gt;FIFO&lt;/div&gt;" style="text;html=1;align=center;verticalAlign=middle;whiteSpace=wrap;rounded=0;" vertex="1" parent="1">
          <mxGeometry x="-170" y="525" width="60" height="30" as="geometry" />
        </mxCell>
        <mxCell id="pJ0Gjrf8YPt-FvfLKCxl-107" value="" style="rounded=1;whiteSpace=wrap;html=1;fillColor=#D4E1F5;" vertex="1" parent="1">
          <mxGeometry x="-110" y="890" width="120" height="130" as="geometry" />
        </mxCell>
        <mxCell id="pJ0Gjrf8YPt-FvfLKCxl-108" value="prev" style="rounded=1;whiteSpace=wrap;html=1;fillColor=#D5E8D4;" vertex="1" parent="1">
          <mxGeometry x="-70" y="930" width="40" height="20" as="geometry" />
        </mxCell>
        <mxCell id="pJ0Gjrf8YPt-FvfLKCxl-109" value="next" style="rounded=1;whiteSpace=wrap;html=1;fillColor=#F8CECC;" vertex="1" parent="1">
          <mxGeometry x="-70" y="990" width="40" height="20" as="geometry" />
        </mxCell>
        <mxCell id="pJ0Gjrf8YPt-FvfLKCxl-110" value="虚拟节点" style="text;html=1;align=center;verticalAlign=middle;whiteSpace=wrap;rounded=0;" vertex="1" parent="1">
          <mxGeometry x="-80" y="890" width="60" height="30" as="geometry" />
        </mxCell>
        <mxCell id="pJ0Gjrf8YPt-FvfLKCxl-111" value="情况1" style="text;html=1;align=center;verticalAlign=middle;whiteSpace=wrap;rounded=0;" vertex="1" parent="1">
          <mxGeometry x="-80" y="820" width="60" height="30" as="geometry" />
        </mxCell>
        <mxCell id="pJ0Gjrf8YPt-FvfLKCxl-112" value="head" style="rounded=1;whiteSpace=wrap;html=1;fillColor=#D5E8D4;" vertex="1" parent="1">
          <mxGeometry x="-230" y="1100" width="40" height="20" as="geometry" />
        </mxCell>
        <mxCell id="pJ0Gjrf8YPt-FvfLKCxl-113" value="tail" style="rounded=1;whiteSpace=wrap;html=1;fillColor=#F8CECC;" vertex="1" parent="1">
          <mxGeometry x="55" y="1100" width="40" height="20" as="geometry" />
        </mxCell>
      </root>
    </mxGraphModel>
  </diagram>
  <diagram id="eZgvi9VB5N3OG8XoB9FP" name="第 2 页">
    <mxGraphModel dx="3131" dy="551" grid="1" gridSize="10" guides="1" tooltips="1" connect="1" arrows="1" fold="1" page="1" pageScale="1" pageWidth="827" pageHeight="1169" math="0" shadow="0">
      <root>
        <mxCell id="0" />
        <mxCell id="1" parent="0" />
        <mxCell id="9JDZjNk49wMfxOwMQSxd-94" value="" style="rounded=0;whiteSpace=wrap;html=1;" vertex="1" parent="1">
          <mxGeometry x="-1060" y="800" width="960" height="760" as="geometry" />
        </mxCell>
        <mxCell id="qztFCC7g6aeMT62cz8E1-1" value="" style="rounded=1;whiteSpace=wrap;html=1;fillColor=#D4E1F5;" vertex="1" parent="1">
          <mxGeometry x="-880" y="920" width="120" height="130" as="geometry" />
        </mxCell>
        <mxCell id="qztFCC7g6aeMT62cz8E1-2" value="prev" style="rounded=1;whiteSpace=wrap;html=1;fillColor=#D5E8D4;" vertex="1" parent="1">
          <mxGeometry x="-840" y="960" width="40" height="20" as="geometry" />
        </mxCell>
        <mxCell id="qztFCC7g6aeMT62cz8E1-3" value="next" style="rounded=1;whiteSpace=wrap;html=1;fillColor=#F8CECC;" vertex="1" parent="1">
          <mxGeometry x="-840" y="1020" width="40" height="20" as="geometry" />
        </mxCell>
        <mxCell id="qztFCC7g6aeMT62cz8E1-4" value="虚拟节点" style="text;html=1;align=center;verticalAlign=middle;whiteSpace=wrap;rounded=0;" vertex="1" parent="1">
          <mxGeometry x="-850" y="920" width="60" height="30" as="geometry" />
        </mxCell>
        <mxCell id="qztFCC7g6aeMT62cz8E1-5" value="h==t情况" style="text;html=1;align=center;verticalAlign=middle;whiteSpace=wrap;rounded=0;" vertex="1" parent="1">
          <mxGeometry x="-850" y="880" width="60" height="30" as="geometry" />
        </mxCell>
        <mxCell id="qztFCC7g6aeMT62cz8E1-8" style="edgeStyle=orthogonalEdgeStyle;rounded=0;orthogonalLoop=1;jettySize=auto;html=1;exitX=0.5;exitY=0;exitDx=0;exitDy=0;entryX=0.25;entryY=1;entryDx=0;entryDy=0;" edge="1" parent="1" source="qztFCC7g6aeMT62cz8E1-6" target="qztFCC7g6aeMT62cz8E1-1">
          <mxGeometry relative="1" as="geometry" />
        </mxCell>
        <mxCell id="qztFCC7g6aeMT62cz8E1-6" value="head" style="rounded=1;whiteSpace=wrap;html=1;fillColor=#D5E8D4;" vertex="1" parent="1">
          <mxGeometry x="-970" y="1130" width="40" height="20" as="geometry" />
        </mxCell>
        <mxCell id="qztFCC7g6aeMT62cz8E1-9" style="edgeStyle=orthogonalEdgeStyle;rounded=0;orthogonalLoop=1;jettySize=auto;html=1;exitX=0.5;exitY=0;exitDx=0;exitDy=0;entryX=0.75;entryY=1;entryDx=0;entryDy=0;" edge="1" parent="1" source="qztFCC7g6aeMT62cz8E1-7" target="qztFCC7g6aeMT62cz8E1-1">
          <mxGeometry relative="1" as="geometry" />
        </mxCell>
        <mxCell id="qztFCC7g6aeMT62cz8E1-7" value="tail" style="rounded=1;whiteSpace=wrap;html=1;fillColor=#F8CECC;" vertex="1" parent="1">
          <mxGeometry x="-730" y="1130" width="40" height="20" as="geometry" />
        </mxCell>
        <mxCell id="9JDZjNk49wMfxOwMQSxd-1" value="" style="rounded=1;whiteSpace=wrap;html=1;fillColor=#D4E1F5;" vertex="1" parent="1">
          <mxGeometry x="-824.5" y="1280" width="120" height="130" as="geometry" />
        </mxCell>
        <mxCell id="9JDZjNk49wMfxOwMQSxd-2" value="waitStates" style="rounded=1;whiteSpace=wrap;html=1;fillColor=#D4E1F5;" vertex="1" parent="1">
          <mxGeometry x="-799.5" y="1300" width="70" height="20" as="geometry" />
        </mxCell>
        <mxCell id="9JDZjNk49wMfxOwMQSxd-3" value="占用线程" style="rounded=1;whiteSpace=wrap;html=1;fillColor=#E6E6E6;" vertex="1" parent="1">
          <mxGeometry x="-799.5" y="1340" width="70" height="20" as="geometry" />
        </mxCell>
        <mxCell id="9JDZjNk49wMfxOwMQSxd-4" value="prev" style="rounded=1;whiteSpace=wrap;html=1;fillColor=#D5E8D4;" vertex="1" parent="1">
          <mxGeometry x="-814.5" y="1380" width="40" height="20" as="geometry" />
        </mxCell>
        <mxCell id="9JDZjNk49wMfxOwMQSxd-5" value="next" style="rounded=1;whiteSpace=wrap;html=1;fillColor=#F8CECC;" vertex="1" parent="1">
          <mxGeometry x="-754.5" y="1380" width="40" height="20" as="geometry" />
        </mxCell>
        <mxCell id="9JDZjNk49wMfxOwMQSxd-6" value="" style="rounded=1;whiteSpace=wrap;html=1;fillColor=#D4E1F5;" vertex="1" parent="1">
          <mxGeometry x="-974.5" y="1280" width="120" height="130" as="geometry" />
        </mxCell>
        <mxCell id="9JDZjNk49wMfxOwMQSxd-7" value="prev" style="rounded=1;whiteSpace=wrap;html=1;fillColor=#D5E8D4;" vertex="1" parent="1">
          <mxGeometry x="-934.5" y="1320" width="40" height="20" as="geometry" />
        </mxCell>
        <mxCell id="9JDZjNk49wMfxOwMQSxd-8" value="next" style="rounded=1;whiteSpace=wrap;html=1;fillColor=#F8CECC;" vertex="1" parent="1">
          <mxGeometry x="-934.5" y="1380" width="40" height="20" as="geometry" />
        </mxCell>
        <mxCell id="9JDZjNk49wMfxOwMQSxd-9" value="虚拟节点" style="text;html=1;align=center;verticalAlign=middle;whiteSpace=wrap;rounded=0;" vertex="1" parent="1">
          <mxGeometry x="-944.5" y="1280" width="60" height="30" as="geometry" />
        </mxCell>
        <mxCell id="9JDZjNk49wMfxOwMQSxd-10" value="Node" style="text;html=1;align=center;verticalAlign=middle;whiteSpace=wrap;rounded=0;" vertex="1" parent="1">
          <mxGeometry x="-794.5" y="1274" width="60" height="30" as="geometry" />
        </mxCell>
        <mxCell id="9JDZjNk49wMfxOwMQSxd-12" style="edgeStyle=orthogonalEdgeStyle;rounded=0;orthogonalLoop=1;jettySize=auto;html=1;exitX=0;exitY=0.75;exitDx=0;exitDy=0;entryX=1.001;entryY=0.892;entryDx=0;entryDy=0;entryPerimeter=0;" edge="1" parent="1" source="9JDZjNk49wMfxOwMQSxd-4" target="9JDZjNk49wMfxOwMQSxd-6">
          <mxGeometry relative="1" as="geometry" />
        </mxCell>
        <mxCell id="9JDZjNk49wMfxOwMQSxd-13" value="h!=t &amp;amp; h.next == null情况&lt;div&gt;（未初始化完成）&lt;/div&gt;" style="text;html=1;align=center;verticalAlign=middle;whiteSpace=wrap;rounded=0;" vertex="1" parent="1">
          <mxGeometry x="-924.5" y="1230" width="150" height="30" as="geometry" />
        </mxCell>
        <mxCell id="9JDZjNk49wMfxOwMQSxd-16" style="edgeStyle=orthogonalEdgeStyle;rounded=0;orthogonalLoop=1;jettySize=auto;html=1;exitX=0.5;exitY=0;exitDx=0;exitDy=0;" edge="1" parent="1" source="9JDZjNk49wMfxOwMQSxd-14" target="9JDZjNk49wMfxOwMQSxd-6">
          <mxGeometry relative="1" as="geometry" />
        </mxCell>
        <mxCell id="9JDZjNk49wMfxOwMQSxd-14" value="head" style="rounded=1;whiteSpace=wrap;html=1;fillColor=#D5E8D4;" vertex="1" parent="1">
          <mxGeometry x="-1000.5" y="1480" width="40" height="20" as="geometry" />
        </mxCell>
        <mxCell id="9JDZjNk49wMfxOwMQSxd-17" style="edgeStyle=orthogonalEdgeStyle;rounded=0;orthogonalLoop=1;jettySize=auto;html=1;exitX=0.5;exitY=0;exitDx=0;exitDy=0;entryX=0.5;entryY=1;entryDx=0;entryDy=0;" edge="1" parent="1" source="9JDZjNk49wMfxOwMQSxd-15" target="9JDZjNk49wMfxOwMQSxd-1">
          <mxGeometry relative="1" as="geometry" />
        </mxCell>
        <mxCell id="9JDZjNk49wMfxOwMQSxd-15" value="tail" style="rounded=1;whiteSpace=wrap;html=1;fillColor=#F8CECC;" vertex="1" parent="1">
          <mxGeometry x="-718.5" y="1480" width="40" height="20" as="geometry" />
        </mxCell>
        <mxCell id="9JDZjNk49wMfxOwMQSxd-18" value="" style="rounded=1;whiteSpace=wrap;html=1;fillColor=#D4E1F5;" vertex="1" parent="1">
          <mxGeometry x="-385.5" y="1280" width="120" height="130" as="geometry" />
        </mxCell>
        <mxCell id="9JDZjNk49wMfxOwMQSxd-19" value="waitStates" style="rounded=1;whiteSpace=wrap;html=1;fillColor=#D4E1F5;" vertex="1" parent="1">
          <mxGeometry x="-360.5" y="1300" width="70" height="20" as="geometry" />
        </mxCell>
        <mxCell id="9JDZjNk49wMfxOwMQSxd-35" style="edgeStyle=orthogonalEdgeStyle;rounded=0;orthogonalLoop=1;jettySize=auto;html=1;exitX=1;exitY=0.5;exitDx=0;exitDy=0;" edge="1" parent="1" source="9JDZjNk49wMfxOwMQSxd-20">
          <mxGeometry relative="1" as="geometry">
            <mxPoint x="-228.5" y="1350.1379310344828" as="targetPoint" />
          </mxGeometry>
        </mxCell>
        <mxCell id="9JDZjNk49wMfxOwMQSxd-20" value="占用线程" style="rounded=1;whiteSpace=wrap;html=1;fillColor=#E6E6E6;" vertex="1" parent="1">
          <mxGeometry x="-360.5" y="1340" width="70" height="20" as="geometry" />
        </mxCell>
        <mxCell id="9JDZjNk49wMfxOwMQSxd-21" value="prev" style="rounded=1;whiteSpace=wrap;html=1;fillColor=#D5E8D4;" vertex="1" parent="1">
          <mxGeometry x="-375.5" y="1380" width="40" height="20" as="geometry" />
        </mxCell>
        <mxCell id="9JDZjNk49wMfxOwMQSxd-22" value="next" style="rounded=1;whiteSpace=wrap;html=1;fillColor=#F8CECC;" vertex="1" parent="1">
          <mxGeometry x="-315.5" y="1380" width="40" height="20" as="geometry" />
        </mxCell>
        <mxCell id="9JDZjNk49wMfxOwMQSxd-23" value="" style="rounded=1;whiteSpace=wrap;html=1;fillColor=#D4E1F5;" vertex="1" parent="1">
          <mxGeometry x="-535.5" y="1280" width="120" height="130" as="geometry" />
        </mxCell>
        <mxCell id="9JDZjNk49wMfxOwMQSxd-24" value="prev" style="rounded=1;whiteSpace=wrap;html=1;fillColor=#D5E8D4;" vertex="1" parent="1">
          <mxGeometry x="-495.5" y="1320" width="40" height="20" as="geometry" />
        </mxCell>
        <mxCell id="9JDZjNk49wMfxOwMQSxd-25" value="next" style="rounded=1;whiteSpace=wrap;html=1;fillColor=#F8CECC;" vertex="1" parent="1">
          <mxGeometry x="-495.5" y="1380" width="40" height="20" as="geometry" />
        </mxCell>
        <mxCell id="9JDZjNk49wMfxOwMQSxd-26" value="虚拟节点" style="text;html=1;align=center;verticalAlign=middle;whiteSpace=wrap;rounded=0;" vertex="1" parent="1">
          <mxGeometry x="-505.5" y="1280" width="60" height="30" as="geometry" />
        </mxCell>
        <mxCell id="9JDZjNk49wMfxOwMQSxd-27" value="Node" style="text;html=1;align=center;verticalAlign=middle;whiteSpace=wrap;rounded=0;" vertex="1" parent="1">
          <mxGeometry x="-355.5" y="1274" width="60" height="30" as="geometry" />
        </mxCell>
        <mxCell id="9JDZjNk49wMfxOwMQSxd-28" style="edgeStyle=orthogonalEdgeStyle;rounded=0;orthogonalLoop=1;jettySize=auto;html=1;exitX=0;exitY=0.75;exitDx=0;exitDy=0;entryX=1.001;entryY=0.892;entryDx=0;entryDy=0;entryPerimeter=0;" edge="1" parent="1" source="9JDZjNk49wMfxOwMQSxd-21" target="9JDZjNk49wMfxOwMQSxd-23">
          <mxGeometry relative="1" as="geometry" />
        </mxCell>
        <mxCell id="9JDZjNk49wMfxOwMQSxd-29" value="h!=t &amp;amp; h.next != null &amp;amp; next.thread = currentThread情况" style="text;html=1;align=center;verticalAlign=middle;whiteSpace=wrap;rounded=0;" vertex="1" parent="1">
          <mxGeometry x="-550.5" y="1230" width="299" height="30" as="geometry" />
        </mxCell>
        <mxCell id="9JDZjNk49wMfxOwMQSxd-30" style="edgeStyle=orthogonalEdgeStyle;rounded=0;orthogonalLoop=1;jettySize=auto;html=1;exitX=0.5;exitY=0;exitDx=0;exitDy=0;" edge="1" parent="1" source="9JDZjNk49wMfxOwMQSxd-31" target="9JDZjNk49wMfxOwMQSxd-23">
          <mxGeometry relative="1" as="geometry" />
        </mxCell>
        <mxCell id="9JDZjNk49wMfxOwMQSxd-31" value="head" style="rounded=1;whiteSpace=wrap;html=1;fillColor=#D5E8D4;" vertex="1" parent="1">
          <mxGeometry x="-561.5" y="1480" width="40" height="20" as="geometry" />
        </mxCell>
        <mxCell id="9JDZjNk49wMfxOwMQSxd-32" style="edgeStyle=orthogonalEdgeStyle;rounded=0;orthogonalLoop=1;jettySize=auto;html=1;exitX=0.5;exitY=0;exitDx=0;exitDy=0;entryX=0.5;entryY=1;entryDx=0;entryDy=0;" edge="1" parent="1" source="9JDZjNk49wMfxOwMQSxd-33" target="9JDZjNk49wMfxOwMQSxd-18">
          <mxGeometry relative="1" as="geometry" />
        </mxCell>
        <mxCell id="9JDZjNk49wMfxOwMQSxd-33" value="tail" style="rounded=1;whiteSpace=wrap;html=1;fillColor=#F8CECC;" vertex="1" parent="1">
          <mxGeometry x="-279.5" y="1480" width="40" height="20" as="geometry" />
        </mxCell>
        <mxCell id="9JDZjNk49wMfxOwMQSxd-34" style="edgeStyle=orthogonalEdgeStyle;rounded=0;orthogonalLoop=1;jettySize=auto;html=1;exitX=1;exitY=0.25;exitDx=0;exitDy=0;entryX=-0.01;entryY=0.81;entryDx=0;entryDy=0;entryPerimeter=0;" edge="1" parent="1" source="9JDZjNk49wMfxOwMQSxd-25" target="9JDZjNk49wMfxOwMQSxd-18">
          <mxGeometry relative="1" as="geometry" />
        </mxCell>
        <mxCell id="9JDZjNk49wMfxOwMQSxd-36" value="不等于当前线程" style="text;html=1;align=center;verticalAlign=middle;whiteSpace=wrap;rounded=0;" vertex="1" parent="1">
          <mxGeometry x="-228.5" y="1335" width="101" height="30" as="geometry" />
        </mxCell>
        <mxCell id="9JDZjNk49wMfxOwMQSxd-53" value="" style="rounded=1;whiteSpace=wrap;html=1;fillColor=#D4E1F5;" vertex="1" parent="1">
          <mxGeometry x="-474" y="930" width="120" height="130" as="geometry" />
        </mxCell>
        <mxCell id="9JDZjNk49wMfxOwMQSxd-54" value="waitStates" style="rounded=1;whiteSpace=wrap;html=1;fillColor=#D4E1F5;" vertex="1" parent="1">
          <mxGeometry x="-449" y="950" width="70" height="20" as="geometry" />
        </mxCell>
        <mxCell id="9JDZjNk49wMfxOwMQSxd-92" style="edgeStyle=orthogonalEdgeStyle;rounded=0;orthogonalLoop=1;jettySize=auto;html=1;exitX=1;exitY=0.5;exitDx=0;exitDy=0;" edge="1" parent="1" source="9JDZjNk49wMfxOwMQSxd-56">
          <mxGeometry relative="1" as="geometry">
            <mxPoint x="-330" y="1000" as="targetPoint" />
          </mxGeometry>
        </mxCell>
        <mxCell id="9JDZjNk49wMfxOwMQSxd-56" value="占用线程" style="rounded=1;whiteSpace=wrap;html=1;fillColor=#E6E6E6;" vertex="1" parent="1">
          <mxGeometry x="-449" y="990" width="70" height="20" as="geometry" />
        </mxCell>
        <mxCell id="9JDZjNk49wMfxOwMQSxd-57" value="prev" style="rounded=1;whiteSpace=wrap;html=1;fillColor=#D5E8D4;" vertex="1" parent="1">
          <mxGeometry x="-464" y="1030" width="40" height="20" as="geometry" />
        </mxCell>
        <mxCell id="9JDZjNk49wMfxOwMQSxd-58" value="next" style="rounded=1;whiteSpace=wrap;html=1;fillColor=#F8CECC;" vertex="1" parent="1">
          <mxGeometry x="-404" y="1030" width="40" height="20" as="geometry" />
        </mxCell>
        <mxCell id="9JDZjNk49wMfxOwMQSxd-59" value="" style="rounded=1;whiteSpace=wrap;html=1;fillColor=#D4E1F5;" vertex="1" parent="1">
          <mxGeometry x="-624" y="930" width="120" height="130" as="geometry" />
        </mxCell>
        <mxCell id="9JDZjNk49wMfxOwMQSxd-60" value="prev" style="rounded=1;whiteSpace=wrap;html=1;fillColor=#D5E8D4;" vertex="1" parent="1">
          <mxGeometry x="-584" y="970" width="40" height="20" as="geometry" />
        </mxCell>
        <mxCell id="9JDZjNk49wMfxOwMQSxd-61" value="next" style="rounded=1;whiteSpace=wrap;html=1;fillColor=#F8CECC;" vertex="1" parent="1">
          <mxGeometry x="-584" y="1030" width="40" height="20" as="geometry" />
        </mxCell>
        <mxCell id="9JDZjNk49wMfxOwMQSxd-62" value="虚拟节点" style="text;html=1;align=center;verticalAlign=middle;whiteSpace=wrap;rounded=0;" vertex="1" parent="1">
          <mxGeometry x="-594" y="930" width="60" height="30" as="geometry" />
        </mxCell>
        <mxCell id="9JDZjNk49wMfxOwMQSxd-63" value="Node" style="text;html=1;align=center;verticalAlign=middle;whiteSpace=wrap;rounded=0;" vertex="1" parent="1">
          <mxGeometry x="-444" y="924" width="60" height="30" as="geometry" />
        </mxCell>
        <mxCell id="9JDZjNk49wMfxOwMQSxd-64" style="edgeStyle=orthogonalEdgeStyle;rounded=0;orthogonalLoop=1;jettySize=auto;html=1;exitX=0;exitY=0.75;exitDx=0;exitDy=0;entryX=1.001;entryY=0.892;entryDx=0;entryDy=0;entryPerimeter=0;" edge="1" parent="1" source="9JDZjNk49wMfxOwMQSxd-57" target="9JDZjNk49wMfxOwMQSxd-59">
          <mxGeometry relative="1" as="geometry" />
        </mxCell>
        <mxCell id="9JDZjNk49wMfxOwMQSxd-65" value="h!=t &amp;amp; h.next != null情况&lt;div&gt;（未初始化完成）&lt;/div&gt;" style="text;html=1;align=center;verticalAlign=middle;whiteSpace=wrap;rounded=0;" vertex="1" parent="1">
          <mxGeometry x="-574" y="880" width="150" height="30" as="geometry" />
        </mxCell>
        <mxCell id="9JDZjNk49wMfxOwMQSxd-66" style="edgeStyle=orthogonalEdgeStyle;rounded=0;orthogonalLoop=1;jettySize=auto;html=1;exitX=0.5;exitY=0;exitDx=0;exitDy=0;" edge="1" parent="1" source="9JDZjNk49wMfxOwMQSxd-67" target="9JDZjNk49wMfxOwMQSxd-59">
          <mxGeometry relative="1" as="geometry" />
        </mxCell>
        <mxCell id="9JDZjNk49wMfxOwMQSxd-67" value="head" style="rounded=1;whiteSpace=wrap;html=1;fillColor=#D5E8D4;" vertex="1" parent="1">
          <mxGeometry x="-650" y="1130" width="40" height="20" as="geometry" />
        </mxCell>
        <mxCell id="9JDZjNk49wMfxOwMQSxd-68" style="edgeStyle=orthogonalEdgeStyle;rounded=0;orthogonalLoop=1;jettySize=auto;html=1;exitX=0.5;exitY=0;exitDx=0;exitDy=0;entryX=0.5;entryY=1;entryDx=0;entryDy=0;" edge="1" parent="1" source="9JDZjNk49wMfxOwMQSxd-69" target="9JDZjNk49wMfxOwMQSxd-53">
          <mxGeometry relative="1" as="geometry" />
        </mxCell>
        <mxCell id="9JDZjNk49wMfxOwMQSxd-69" value="tail" style="rounded=1;whiteSpace=wrap;html=1;fillColor=#F8CECC;" vertex="1" parent="1">
          <mxGeometry x="-368" y="1130" width="40" height="20" as="geometry" />
        </mxCell>
        <mxCell id="9JDZjNk49wMfxOwMQSxd-70" style="edgeStyle=orthogonalEdgeStyle;rounded=0;orthogonalLoop=1;jettySize=auto;html=1;exitX=1;exitY=0.25;exitDx=0;exitDy=0;entryX=-0.01;entryY=0.81;entryDx=0;entryDy=0;entryPerimeter=0;" edge="1" parent="1" source="9JDZjNk49wMfxOwMQSxd-61" target="9JDZjNk49wMfxOwMQSxd-53">
          <mxGeometry relative="1" as="geometry" />
        </mxCell>
        <mxCell id="9JDZjNk49wMfxOwMQSxd-72" value="返回false场景" style="text;html=1;align=center;verticalAlign=middle;whiteSpace=wrap;rounded=0;" vertex="1" parent="1">
          <mxGeometry x="-662" y="810" width="90" height="30" as="geometry" />
        </mxCell>
        <mxCell id="9JDZjNk49wMfxOwMQSxd-93" value="等于当前线程" style="text;html=1;align=center;verticalAlign=middle;whiteSpace=wrap;rounded=0;" vertex="1" parent="1">
          <mxGeometry x="-328" y="985" width="101" height="30" as="geometry" />
        </mxCell>
        <mxCell id="9JDZjNk49wMfxOwMQSxd-96" value="返回true场景" style="text;html=1;align=center;verticalAlign=middle;whiteSpace=wrap;rounded=0;" vertex="1" parent="1">
          <mxGeometry x="-650" y="1180" width="80" height="30" as="geometry" />
        </mxCell>
      </root>
    </mxGraphModel>
  </diagram>
</mxfile>
